<svg xmlns="http://www.w3.org/2000/svg" viewBox="0 0 512 512">
  <!-- Golden border frame -->
  <rect x="0" y="0" width="512" height="512" fill="#D4AF37"/>
  <rect x="20" y="20" width="472" height="472" fill="#1C3D2C"/>
  
  <!-- Left fence post -->
  <rect x="96" y="116" width="60" height="280" fill="#8B4513"/>
  <rect x="96" y="158" width="60" height="80" fill="#A0522D"/>
  
  <!-- Middle fence post (taller) -->
  <rect x="226" y="116" width="60" height="280" fill="#8B4513"/>
  <rect x="226" y="116" width="60" height="100" fill="#A0522D"/>
  
  <!-- Right fence post -->
  <rect x="356" y="116" width="60" height="280" fill="#8B4513"/>
  <rect x="356" y="158" width="60" height="80" fill="#A0522D"/>
  
  <!-- Top horizontal rail -->
  <rect x="76" y="240" width="360" height="26" fill="#D4AF37"/>
  
  <!-- Bottom horizontal rail -->
  <rect x="76" y="320" width="360" height="26" fill="#D4AF37"/>
  
  <!-- Post depth shading -->
  <rect x="96" y="116" width="4" height="280" fill="#654321"/>
  <rect x="152" y="116" width="4" height="280" fill="#A0522D"/>
  <rect x="226" y="116" width="4" height="280" fill="#654321"/>
  <rect x="282" y="116" width="4" height="280" fill="#A0522D"/>
  <rect x="356" y="116" width="4" height="280" fill="#654321"/>
  <rect x="412" y="116" width="4" height="280" fill="#A0522D"/>
</svg>
